<svg width="72" height="72" viewBox="0 0 72 72" fill="none" xmlns="http://www.w3.org/2000/svg">
<path d="M46.7314 8.47559C49.804 0.387682 59.8318 -2.45103 66.7998 2.8457H66.8008C73.7112 8.09741 73.4721 18.5908 66.4307 23.6201C66.0888 23.8648 65.403 24.2922 64.7031 24.6582C64.3536 24.841 64.0032 25.0069 63.6924 25.127C63.3768 25.2489 63.1183 25.3169 62.9463 25.3174L62.8545 25.3135C62.4013 25.2767 62.0433 24.9642 61.876 24.5586C61.6978 24.1268 61.7462 23.6154 62.1133 23.2578C62.1795 23.1932 62.3097 23.1114 62.4922 23.0166C62.6705 22.9239 62.8848 22.8262 63.1084 22.7275C63.5484 22.5333 64.0348 22.3312 64.3096 22.1699C73.2074 16.9506 69.8483 3.14302 59.5342 2.52539C57.596 2.40957 55.3165 2.84693 53.6914 3.92969L53.2793 4.2041H53.751C55.7179 4.88635 57.2418 6.62797 57.7168 8.65332L60.0635 26.7988L59.9023 27.6875L27.2656 60.1748C25.743 61.4681 23.412 61.5081 21.8848 60.2158L1.0752 39.5098C-0.21639 37.931 -0.145254 35.6201 1.22363 34.1182L33.7441 1.78711C34.1835 1.50148 34.4916 1.57781 35.0479 1.62207C36.8496 1.76846 38.6802 2.02565 40.5146 2.29688C42.3374 2.56636 44.165 2.84907 45.9648 3.04688C46.5588 3.35002 46.7557 3.88761 46.6562 4.36426C46.5558 4.84522 46.1505 5.27846 45.4971 5.35352L34.9238 4.05859L34.8516 4.0498L34.7998 4.10156L2.96875 35.7705L2.96191 35.7764L2.95703 35.7832C2.62812 36.1941 2.4945 36.6082 2.5332 37.0244C2.57148 37.4355 2.77583 37.8279 3.08105 38.2041L3.08691 38.21L3.0918 38.2158L23.2246 58.2432L23.2266 58.2441C23.8409 58.8386 24.7147 58.9515 25.4609 58.5254L25.4775 58.5156L25.4922 58.502L57.5361 26.6445L57.5879 26.5928L57.5791 26.5195L55.4541 9.45117L55.4521 9.44141L55.4082 9.23633C54.9054 7.14832 53.1013 6.06601 51.0029 6.05957H50.9355L50.8906 6.10938C50.1839 6.90018 49.641 7.8068 49.1631 8.73145L49.0869 8.87793L49.2402 8.93945C52.8485 10.3902 54.2209 14.7397 51.9287 17.9395C49.9818 20.6572 46.1327 21.234 43.4863 19.2266L43.2344 19.0244C39.1544 15.564 41.3443 9.04034 46.6045 8.57227L46.6982 8.56348L46.7314 8.47559ZM45.7344 11.2158C42.3565 12.5706 43.0027 17.6856 46.7139 17.9932C50.7947 18.3318 52.2163 12.9348 48.543 11.2979L48.5137 11.2852H48.3408L48.3301 11.4229C48.265 12.2684 48.2034 13.1347 48.2451 13.998V13.999C48.257 14.2393 48.3014 14.4964 48.3369 14.7383C48.3732 14.9854 48.4017 15.2204 48.3916 15.4365C48.3816 15.651 48.3331 15.8368 48.2246 15.9912C48.1168 16.1445 47.9391 16.2827 47.6406 16.3818C47.2669 16.5057 46.9868 16.4906 46.7734 16.4014C46.5587 16.3115 46.3895 16.1369 46.2568 15.8994C45.988 15.4181 45.8923 14.7237 45.8555 14.1455C45.7977 13.2293 45.8836 12.2949 45.9404 11.3643L45.9541 11.127L45.7344 11.2158Z" fill="#B12024" stroke="white" stroke-width="0.3"/>
<path d="M59.4023 31.3036C59.9606 31.2439 60.5411 31.5902 60.7012 32.121C60.7327 32.8981 60.9035 33.7801 61.0615 34.6386C61.2226 35.5136 61.3701 36.3646 61.3574 37.0917C61.3517 37.407 61.2135 37.7163 61.0029 37.9648L28.1221 70.6786C26.5812 72.1163 24.2391 72.2655 22.5732 70.9521L1.71289 50.205C1.04477 49.4586 0.73445 48.3504 0.804688 47.2685C0.875185 46.1839 1.32572 45.1522 2.14648 44.5527C2.74588 44.1152 3.64654 44.3216 3.93262 45.0019C4.06653 45.3201 4.05647 45.5699 3.98242 45.7929C3.90498 46.026 3.75686 46.2342 3.59473 46.4736C3.43768 46.7054 3.26944 46.9638 3.19336 47.2714C3.11557 47.5863 3.13703 47.9412 3.33105 48.3642L3.3418 48.3867L3.35938 48.4052C10.0742 55.382 17.0959 62.1094 23.9189 68.9843L23.9238 68.9882C24.5692 69.5839 25.5266 69.652 26.2314 69.1415L26.3691 69.0322L26.376 69.0263L58.7842 36.7978L58.8359 36.746L58.8281 36.6738L58.3389 32.4872C58.4227 31.9191 58.7575 31.4321 59.292 31.3212L59.4023 31.3036Z" fill="#B12024" stroke="white" stroke-width="0.3"/>
</svg>
