<svg width="72" height="62" viewBox="0 0 72 62" fill="none" xmlns="http://www.w3.org/2000/svg">
<path d="M27.1016 33.6002C28.6527 29.1487 33.0033 26.6943 37.6533 27.4391C45.4201 28.6869 48.2796 39.0641 42.2139 44.111C41.8986 44.3732 41.5414 44.604 41.1885 44.8297L40.9268 44.9977L41.2207 45.0983L46.835 47.0162L46.8477 47.0201L46.8623 47.0221C46.9238 47.0308 46.9919 47.0248 47.0566 47.0133C47.1239 47.0014 47.1989 46.9814 47.2764 46.9576C47.4313 46.9102 47.6095 46.8424 47.7861 46.7701C47.9676 46.6959 48.1443 46.6183 48.2998 46.5514L48.6855 46.3942C50.0938 45.8955 51.5236 45.4683 52.9492 45.0035L53.2197 44.9147L52.9941 44.7418C50.8774 43.1136 49.6805 40.701 49.8252 38.0026C50.1836 31.3078 57.947 27.9544 62.9854 32.4156C67.4559 36.3733 65.9979 43.8094 60.4473 45.7867L60.1797 45.8766C59.4284 46.1152 58.6887 46.1813 57.9365 46.234C57.1888 46.2864 56.4243 46.3264 55.6494 46.5192C54.7668 46.7401 53.8786 47.0643 52.998 47.3873C52.1147 47.7113 51.2386 48.0339 50.3662 48.2555L50.3428 48.2614L50.3213 48.275L50.1689 48.3727L49.9932 48.486L50.1572 48.6168C52.4603 50.4456 53.4549 53.3821 53.2607 56.3024L53.25 56.4625H69.1855C69.2279 56.4624 69.2586 56.4439 69.2637 56.441C69.2744 56.4349 69.2836 56.4287 69.2891 56.4244C69.3004 56.4156 69.3112 56.4048 69.3203 56.3961C69.3392 56.3782 69.3612 56.3556 69.3818 56.3336C69.4159 56.2974 69.474 56.2334 69.4834 56.2233L69.5244 56.1803V56.1207C69.5264 55.5443 69.5583 54.9719 69.5752 54.3961C69.592 53.8237 69.5937 53.2531 69.5342 52.6998C69.4146 51.5888 69.0463 50.5392 68.0537 49.65C67.5314 49.1829 67.038 48.9662 66.5498 48.7994C66.0579 48.6314 65.5977 48.5211 65.0889 48.2623C64.5984 48.012 64.4317 47.499 64.5254 47.0201C64.6197 46.5385 64.9689 46.1332 65.4697 46.0865C65.5705 46.0772 65.7317 46.0965 65.9375 46.1422C66.1392 46.187 66.3701 46.2537 66.6035 46.3297C66.837 46.4057 67.0706 46.4907 67.2773 46.5699L67.7891 46.778C69.8492 47.6963 71.5268 49.7867 71.8271 52.0553L71.8516 52.276V56.4801C71.5639 57.6719 70.6929 58.5537 69.4824 58.7477L53.4521 58.7633H53.3887L53.3447 58.8082L53.251 58.9039L53.2139 58.943L53.209 58.9967C53.0885 60.454 52.0231 61.5436 50.6084 61.8531H21.373C19.9444 61.5154 18.8766 60.3807 18.7832 58.8932L18.7744 58.7526H18.6338L2.56055 58.7448C1.34485 58.5508 0.486963 57.6741 0.193359 56.4811C0.242885 55.7801 0.208603 55.0327 0.178711 54.3004C0.14825 53.5541 0.122823 52.8227 0.191406 52.1481L0.199219 52.0719C0.361311 50.7077 1.14946 49.3104 2.25 48.2037C3.37164 47.0758 4.79932 46.2669 6.17676 46.1012C6.85938 46.0191 7.32436 46.4193 7.48535 46.9137C7.64741 47.4115 7.49692 47.9849 6.95215 48.2623C6.65011 48.4161 6.36357 48.5231 6.08398 48.6178C5.80821 48.7112 5.5269 48.7963 5.25684 48.8981C4.70434 49.1063 4.16592 49.3979 3.59766 50.0465H3.59668C2.8227 50.9308 2.55661 51.9389 2.48145 52.9781C2.44396 53.4966 2.45419 54.0256 2.47266 54.5514C2.49122 55.0797 2.51789 55.603 2.5166 56.1207V56.1793L2.55762 56.2233C2.56669 56.233 2.62507 56.2973 2.65918 56.3336C2.67979 56.3555 2.70181 56.3782 2.7207 56.3961C2.72984 56.4048 2.74061 56.4156 2.75195 56.4244C2.75739 56.4287 2.76651 56.4349 2.77734 56.441C2.78202 56.4437 2.81285 56.4624 2.85547 56.4625H18.7783L18.7803 56.3151C18.7962 55.4437 18.7291 54.6133 18.8516 53.7819C19.151 51.7501 20.2963 49.8962 21.8848 48.6158L22.0889 48.4518L21.8447 48.359C20.6795 47.9153 19.4622 47.4977 18.2666 47.1217C17.2613 46.8045 16.2276 46.4115 15.1367 46.2955C13.5637 46.127 12.6683 46.2607 11.1875 45.6207C5.67068 43.2384 4.71305 35.7197 9.49512 32.0475C14.6063 28.1223 21.829 31.5617 22.2129 37.9391C22.3753 40.6633 21.1808 43.1011 19.0439 44.7418L18.8174 44.9156L19.0889 45.0035C21.0247 45.6297 22.9764 46.1765 24.8115 47.0104L24.8613 47.0328L24.9141 47.0182C26.2248 46.6468 27.5618 46.2344 28.8779 45.7955L30.1846 45.3492C30.2381 45.3306 30.3765 45.2836 30.5049 45.233C30.5689 45.2078 30.6345 45.18 30.6875 45.153C30.7137 45.1396 30.7404 45.1244 30.7637 45.108C30.7809 45.0959 30.8196 45.0671 30.8418 45.0211L30.9004 44.901L30.7871 44.8297C26.9852 42.4276 25.6262 37.8319 27.1016 33.6002ZM35.4912 46.4371C33.1334 46.5785 30.4114 47.6127 28.207 48.3698C26.8516 48.8348 25.4161 49.2248 24.1973 49.8815C23.0452 50.5022 22.0718 51.3685 21.5039 52.776L21.3955 53.0641C21.0825 53.9696 21.0358 54.9557 21.0488 55.9332C21.0619 56.9204 21.1351 57.8873 21.0723 58.7994L21.0713 58.8082V58.817C21.0883 59.1596 21.3646 59.3902 21.5889 59.5133L21.623 59.5319H21.6611L50.3691 59.524H50.4043L50.4355 59.5084C50.5584 59.4478 50.6515 59.3726 50.7236 59.277C50.7942 59.1833 50.8398 59.0767 50.877 58.9625C50.9305 58.7983 50.9617 58.5051 50.9814 58.1666C51.0016 57.8218 51.0103 57.4101 51.0117 56.9948C51.0146 56.1641 50.989 55.3112 50.9668 54.9371C50.8283 52.5493 49.5288 50.5994 47.3691 49.6334L47.1572 49.5426C45.0981 48.7014 42.4861 47.851 40.3457 47.2291C38.82 46.7844 37.1248 46.3397 35.4912 46.4371ZM35.6836 29.6715C30.7315 29.8751 27.6815 34.5198 29.1562 39.1969C30.1459 42.332 32.9815 43.9425 35.8359 44.0114C38.69 44.08 41.5933 42.6082 42.7197 39.5504C44.5663 34.5387 41.0838 29.4498 35.6836 29.6715ZM63.0957 36.8268C62.0653 32.7806 56.9682 31.4249 53.959 34.0992V34.0797L53.7021 34.3385C50.8453 37.2221 52.0286 42.5402 56.0215 43.7076C60.4031 44.9881 64.2158 41.2225 63.0957 36.8268ZM18.333 34.3375C15.6613 31.6662 10.6711 32.4828 9.18555 36.0289C7.26192 40.6198 11.3365 45.0843 16.0938 43.6588C20.0602 42.4699 21.2137 37.2207 18.333 34.3375Z" fill="#B12024" stroke="white" stroke-width="0.3"/>
<path d="M36.5664 0.156189C37.5886 0.428561 38.2626 1.01355 38.6641 1.99115C39.0827 3.01079 39.4596 4.38237 39.8145 5.50677C39.8402 5.58845 39.8512 5.6726 39.8535 5.76556L39.8574 5.90228L39.9941 5.91107C40.6745 5.95433 41.3847 5.92778 42.083 5.90424C42.7845 5.88059 43.4747 5.86047 44.1299 5.914C46.5967 6.11478 47.6821 8.99966 46.0166 10.7099L45.8467 10.872C45.3511 11.3103 44.7665 11.6978 44.1709 12.0966C43.579 12.4929 42.9762 12.9003 42.4619 13.371L42.3965 13.4316L42.418 13.5175C42.5766 14.1494 42.801 14.7808 43.0225 15.4023C43.2448 16.0262 43.4646 16.6413 43.6191 17.2529C43.9565 18.588 43.4746 19.7446 42.6279 20.3906C41.782 21.0359 40.5598 21.1806 39.3906 20.4648C39.1675 20.328 38.4 19.7432 37.6475 19.1826C37.2744 18.9047 36.9075 18.6349 36.6211 18.4355C36.4782 18.336 36.3528 18.2528 36.2559 18.1943C36.2077 18.1652 36.1634 18.1406 36.126 18.123C36.1075 18.1143 36.088 18.1057 36.0684 18.0995C36.0521 18.0944 36.0197 18.0855 35.9834 18.0888L35.9521 18.0917L35.9238 18.1074C35.4136 18.3936 34.9056 18.79 34.4004 19.1894C33.8916 19.5916 33.3838 19.9982 32.8613 20.3203C32.3394 20.6419 31.8132 20.872 31.2715 20.9296C30.7337 20.9868 30.1691 20.8748 29.5654 20.4921C28.5248 19.8309 28.1037 18.6476 28.3662 17.4443C28.5009 16.827 28.7343 16.1781 28.9756 15.5126C29.2155 14.851 29.4631 14.1724 29.6182 13.5126L29.6406 13.4169L29.5615 13.3583L26.2188 10.8964C24.3362 9.31637 25.3575 6.10521 27.8379 5.91107C28.5037 5.85878 29.2049 5.88058 29.917 5.90424C30.6258 5.92779 31.3462 5.95338 32.0371 5.90619L32.1367 5.89935L32.1689 5.80463C32.3774 5.18591 32.559 4.52209 32.7471 3.87201C32.9358 3.21959 33.1321 2.57825 33.3721 1.99115C33.6928 1.21057 34.2165 0.624446 34.9961 0.302673L35.4688 0.156189H36.5664ZM35.9883 2.42767C35.7806 2.44921 35.6169 2.61959 35.5166 2.83588V2.83685C35.1961 3.53592 34.9706 4.3578 34.751 5.16791C34.5299 5.98342 34.3146 6.78721 34.0146 7.47357C33.8374 7.87767 33.4979 8.17165 33.0674 8.2099C32.2976 8.27744 31.4615 8.23778 30.6143 8.20013C29.7721 8.16271 28.9186 8.12802 28.1318 8.21088C27.907 8.23461 27.6895 8.31706 27.583 8.49017C27.4655 8.68124 27.5237 8.90622 27.6885 9.11322L27.7012 9.12885L27.7178 9.14154L31.7812 12.0829C32.1447 12.3898 32.2002 12.8222 32.1133 13.3242L30.5771 18.039L30.5723 18.0546L30.5703 18.0722C30.5357 18.4614 30.9231 18.7213 31.2627 18.5947L31.3301 18.5644L31.3408 18.5576C31.9824 18.1364 32.5955 17.6714 33.2031 17.2099C33.812 16.7475 34.4157 16.2883 35.0449 15.871C35.4045 15.6331 35.6517 15.4887 35.8994 15.4511C36.1066 15.4197 36.3321 15.4615 36.6445 15.6308L36.7832 15.7109L40.6914 18.5536L40.7002 18.5595L40.71 18.5644C41.0609 18.7498 41.5043 18.4913 41.4658 18.0839L41.4512 17.9999L41.4482 17.9902L39.9121 13.2753C39.8785 13.0237 39.8764 12.8146 39.9209 12.6288C39.965 12.4452 40.0577 12.2752 40.2295 12.1044L44.4307 8.98724L44.4766 8.95306L44.4883 8.8974C44.5309 8.69028 44.4984 8.51135 44.3682 8.3847C44.2486 8.2685 44.0744 8.22499 43.9043 8.2099H43.9033C43.1031 8.13391 42.2339 8.17777 41.3809 8.21771C40.6292 8.25291 39.8898 8.28492 39.2031 8.23627L38.9121 8.21088C38.7314 8.19129 38.5067 8.09848 38.3701 7.98529L38.3535 7.97064C38.2988 7.92181 38.2314 7.83328 38.165 7.7265C38.1326 7.67438 38.1023 7.62049 38.0752 7.56927L38.0059 7.4267C37.7102 6.75396 37.4974 5.93462 37.2764 5.10638C37.0845 4.38752 36.886 3.66144 36.6201 3.04388L36.502 2.78607C36.389 2.55609 36.2087 2.40504 35.9883 2.42767Z" fill="#B12024" stroke="white" stroke-width="0.3"/>
<path d="M12.6074 9.70752C13.2884 9.65089 13.7931 9.78249 14.1826 10.0298C14.5742 10.2784 14.8634 10.653 15.0957 11.1069C15.3284 11.5619 15.5 12.0875 15.6611 12.6294C15.8208 13.1663 15.9716 13.723 16.1611 14.2202L16.2939 14.1694L16.291 14.3169C16.8126 14.3444 17.3873 14.3185 17.9492 14.3071C18.5161 14.2957 19.075 14.2986 19.5859 14.3804C20.0962 14.4621 20.5485 14.621 20.9082 14.9126C21.2655 15.2023 21.5434 15.6335 21.6904 16.2837C21.8172 16.8443 21.7639 17.3068 21.5957 17.7056C21.4262 18.1072 21.1363 18.4544 20.7773 18.7749C20.4179 19.0958 19.9962 19.3834 19.5674 19.6714C19.142 19.957 18.708 20.2442 18.3398 20.5562L18.2646 20.6196L18.293 20.7144L19.3018 24.0405C19.4728 26.1566 17.3457 27.4969 15.4863 26.4106C15.4 26.3601 15.2143 26.2265 14.9727 26.0464C14.7338 25.8683 14.4492 25.6518 14.1699 25.4409C13.8915 25.2308 13.618 25.0261 13.4033 24.8735C13.2962 24.7974 13.2021 24.7323 13.1279 24.686C13.0911 24.6631 13.0561 24.6433 13.0264 24.6284C13.0118 24.6211 12.9963 24.6136 12.9805 24.6079C12.9669 24.603 12.9419 24.5952 12.9131 24.5942L12.873 24.5933L12.8379 24.6118C12.4125 24.8372 12.0117 25.1368 11.624 25.437C11.233 25.7398 10.8565 26.0424 10.4658 26.2886C10.0765 26.5339 9.68243 26.7166 9.26465 26.7837C8.84968 26.8503 8.40158 26.8037 7.89941 26.5767C7.2745 26.2948 6.87431 25.8491 6.66699 25.3188C6.4587 24.786 6.4414 24.1582 6.60352 23.5132C6.71671 23.0681 6.87676 22.6132 7.04102 22.1509C7.20445 21.6909 7.37301 21.2229 7.49902 20.7622L7.52246 20.6743L7.45605 20.6128C7.06259 20.2472 6.60037 19.9314 6.15234 19.6274C5.70043 19.3209 5.26357 19.0269 4.90234 18.6958C4.54251 18.366 4.26685 18.0075 4.12988 17.5796C3.99359 17.1537 3.99016 16.643 4.20215 15.9976V15.9966C4.39569 15.4071 4.69265 15.027 5.05273 14.7788C5.41564 14.5288 5.85455 14.4042 6.34277 14.3472C6.83203 14.2901 7.35972 14.3016 7.89746 14.3159C8.43084 14.3302 8.97619 14.3471 9.48145 14.2954L9.56738 14.2866L9.60254 14.2075C9.79375 13.7773 9.93843 13.2826 10.082 12.7915C10.2268 12.2965 10.3715 11.8032 10.5645 11.3569C10.7572 10.9111 10.9943 10.5222 11.3174 10.2339C11.6377 9.94809 12.05 9.75407 12.6074 9.70752ZM12.7686 12.229L11.4688 15.9712C11.4161 16.0772 11.2909 16.2317 11.1387 16.3687C11.0633 16.4365 10.9851 16.4965 10.9121 16.5415C10.8372 16.5876 10.7761 16.613 10.7334 16.6206H6.42676L6.46973 16.8052C6.4881 16.8836 6.53681 16.9418 6.57422 16.98C6.60911 17.0155 6.65459 17.0517 6.67676 17.0708V17.0718C7.11425 17.4617 7.70828 17.8537 8.27051 18.2378C8.83992 18.6268 9.37616 19.0073 9.72656 19.3813V19.3804C10.0423 19.7183 10.0479 20.0528 9.99609 20.5522L8.81543 24.1909L8.67969 24.6108L9.04395 24.3608L12.2402 22.1636C12.6486 21.9587 12.8677 21.919 13.0625 21.9585C13.1647 21.9792 13.2699 22.0236 13.4004 22.0952C13.5327 22.1679 13.6792 22.2612 13.8701 22.3774C14.3429 22.6659 14.7841 23.0108 15.2334 23.3618C15.6802 23.7109 16.1357 24.0658 16.627 24.3647L16.6846 24.3999L16.749 24.3804C16.8135 24.3603 16.8604 24.313 16.8809 24.2524C16.8976 24.2027 16.8934 24.1553 16.8887 24.1274C16.8836 24.0973 16.8743 24.0688 16.8682 24.0493L16.8564 24.0093L16.8555 24.0044L16.7314 23.5806C16.5945 23.1439 16.4233 22.6713 16.2637 22.2095C16.0489 21.5877 15.8543 20.9847 15.7764 20.4849C15.7199 20.1188 15.7376 19.8424 15.9248 19.5513C15.9836 19.4598 16.1262 19.3212 16.334 19.1509C16.5367 18.9847 16.7872 18.7997 17.0479 18.6147C17.3047 18.4324 17.5762 18.2477 17.8164 18.0835L18.4014 17.6753C18.6926 17.4594 19.0463 17.2224 19.3145 16.938L19.542 16.6958L19.21 16.6851C18.7265 16.6694 18.2414 16.6799 17.7617 16.689C17.2807 16.698 16.8045 16.7055 16.3311 16.6851H16.3301C15.9941 16.672 15.5162 16.6546 15.2041 16.6216H15.2051C14.9002 16.5878 14.7046 16.4763 14.5586 16.3159C14.4069 16.1491 14.3004 15.921 14.1924 15.6382C13.9829 15.0891 13.8263 14.5135 13.6562 13.9302C13.4872 13.3503 13.3058 12.7653 13.0469 12.2144L12.8896 11.8813L12.7686 12.229Z" fill="#B12024" stroke="white" stroke-width="0.3"/>
<path d="M58.9434 9.70544C59.6135 9.66201 60.1057 9.80163 60.4834 10.0531C60.8633 10.3061 61.1415 10.6811 61.3652 11.1332C61.5895 11.5863 61.7547 12.1064 61.915 12.641C62.074 13.171 62.2283 13.718 62.4307 14.2045L62.4482 14.2465L62.4863 14.2719C62.5244 14.297 62.5716 14.3063 62.5967 14.3109C62.6296 14.3169 62.669 14.321 62.7119 14.3246C62.7982 14.3318 62.9107 14.3359 63.0391 14.3383C63.2965 14.343 63.6288 14.3403 63.9678 14.3353C64.6526 14.3252 65.3528 14.3069 65.5654 14.3217C67.1263 14.4372 68.1634 15.6475 67.9795 17.2191C67.89 17.9835 67.3473 18.5593 66.6533 19.0834C66.3075 19.3445 65.9352 19.5855 65.5732 19.8295C65.2145 20.0713 64.8659 20.3163 64.584 20.5795L64.5205 20.639L64.541 20.724C64.6583 21.2076 64.8273 21.6891 64.9941 22.1605C65.1618 22.6344 65.327 23.0986 65.4414 23.5609C65.7349 24.7495 65.3942 25.9076 64.29 26.4935C63.7682 26.7711 63.3052 26.8477 62.8789 26.8002C62.4499 26.7523 62.0459 26.5774 61.6455 26.3324C61.2436 26.0864 60.8555 25.7767 60.4512 25.4642C60.0503 25.1545 59.6354 24.8426 59.1924 24.6088L59.1152 24.5687L59.042 24.6146C58.6015 24.8914 58.1527 25.2462 57.7061 25.5834C57.2553 25.9236 56.8037 26.249 56.3447 26.4818C55.8865 26.7142 55.43 26.8493 54.9697 26.8207C54.5125 26.7922 54.0344 26.6004 53.5312 26.1488C53.0985 25.7604 52.877 25.3506 52.7871 24.9271C52.6965 24.5004 52.7366 24.0492 52.8457 23.5775C52.9551 23.1046 53.1313 22.6231 53.3037 22.1322C53.4746 21.6456 53.6416 21.1497 53.7256 20.6654L53.6006 20.6439L53.6768 20.5248C53.283 20.2137 52.8418 19.9235 52.4131 19.6351C51.9818 19.345 51.5615 19.0558 51.1963 18.7426C50.7453 18.3558 50.4671 17.9067 50.3535 17.4213C50.2399 16.9354 50.2891 16.4024 50.5088 15.8451C50.7237 15.3007 51.0315 14.9499 51.3975 14.722C51.7662 14.4925 52.204 14.3815 52.6855 14.3334C53.168 14.2852 53.6843 14.3009 54.208 14.3197C54.7276 14.3383 55.2566 14.3598 55.7471 14.3168L55.8389 14.309L55.873 14.224C56.054 13.7795 56.1944 13.274 56.3379 12.7758C56.4826 12.2734 56.6313 11.7754 56.8311 11.3285C57.0306 10.8822 57.2771 10.4961 57.6113 10.2123C57.9432 9.93056 58.37 9.74293 58.9434 9.70544ZM59.0537 12.2142L58.8311 12.6879H58.8301L58.8262 12.7006C58.689 13.0784 58.4502 13.9056 58.1992 14.6625C58.0721 15.046 57.9411 15.4166 57.8135 15.7162C57.7497 15.866 57.6875 15.996 57.6289 16.1C57.5694 16.2057 57.518 16.2757 57.4775 16.3138C57.4338 16.3546 57.3285 16.4292 57.2119 16.4984C57.1553 16.532 57.0994 16.5625 57.0508 16.5853C57.0047 16.6069 56.973 16.6167 56.957 16.6205H52.7578L52.75 16.7621C52.7457 16.8403 52.7753 16.9064 52.8086 16.9554C52.8415 17.0038 52.8838 17.0449 52.9229 17.0775C52.9624 17.1106 53.0051 17.1403 53.041 17.1654C53.0789 17.1919 53.1075 17.2108 53.1289 17.2279V17.2289C53.555 17.575 54.0704 17.9209 54.5625 18.265C55.0585 18.6118 55.5328 18.9578 55.8955 19.3129C56.1029 19.5154 56.2138 19.693 56.2627 19.8802C56.2998 20.0222 56.3042 20.1798 56.2783 20.3724L56.2422 20.5775C56.218 20.6906 56.1299 20.9594 56.0068 21.3148C55.8849 21.667 55.7347 22.0881 55.5898 22.5033C55.4457 22.9164 55.3075 23.3216 55.2129 23.6332C55.1658 23.7884 55.1283 23.9244 55.1064 24.0277C55.0957 24.0786 55.0876 24.1267 55.085 24.1674C55.0837 24.1874 55.083 24.2106 55.0859 24.2338C55.0885 24.2533 55.0959 24.2938 55.125 24.3304L55.2002 24.4252L55.3086 24.3715C55.5368 24.2584 55.844 24.0428 56.1797 23.7924C56.3492 23.666 56.529 23.5285 56.7129 23.3881C56.897 23.2474 57.085 23.1028 57.2734 22.9623C57.6511 22.6807 58.025 22.4158 58.3555 22.222C58.5205 22.1253 58.6721 22.0482 58.8057 21.9955C58.941 21.9422 59.0493 21.9181 59.1299 21.9183C59.3191 21.9183 59.5918 22.0274 59.9287 22.2279C60.2588 22.4243 60.6256 22.6931 60.9961 22.9799C61.181 23.1229 61.3661 23.2696 61.5469 23.4135C61.7272 23.5569 61.9039 23.6975 62.0713 23.8275C62.4033 24.0853 62.7103 24.3095 62.9482 24.432L63.2637 24.5941L63.1611 24.2552L62.042 20.5551C61.9827 20.0516 62.0066 19.6803 62.335 19.3451V19.3441C62.6916 18.9801 63.2375 18.6114 63.8164 18.2328C64.3833 17.862 64.9805 17.4817 65.4248 17.1029C65.4346 17.1001 65.4691 17.0901 65.4971 17.0707C65.5446 17.0375 65.5715 16.9871 65.5781 16.931C65.5835 16.8853 65.5757 16.8384 65.5645 16.7963L65.5352 16.6888L65.4238 16.6859L64.7139 16.6781C64.4777 16.6797 64.2421 16.6835 64.0078 16.6879C63.6551 16.6944 63.3047 16.7012 62.957 16.6957L62.6094 16.6859L62.5312 16.6761C62.5044 16.6713 62.4757 16.665 62.4443 16.6576C62.3859 16.6439 62.3115 16.6263 62.2344 16.6215V16.6205C62.0293 16.6081 61.8301 16.6088 61.665 16.6029C61.4941 16.5968 61.3482 16.5837 61.2168 16.5492C60.9709 16.4845 60.754 16.3374 60.5498 15.933L59.332 12.2308L59.2139 11.8724L59.0537 12.2142Z" fill="#B12024" stroke="white" stroke-width="0.3"/>
</svg>
