<svg width="72" height="72" viewBox="0 0 72 72" fill="none" xmlns="http://www.w3.org/2000/svg">
<g opacity="0.72">
<path d="M11.1797 8.91284C11.5747 8.60733 12.1434 8.67988 12.4492 9.07495C12.755 9.46997 12.6823 10.0386 12.2871 10.3445C11.7255 10.7791 11.1251 11.173 10.5029 11.5144C10.0659 11.754 9.51547 11.5953 9.27441 11.156C9.03407 10.7179 9.19473 10.1679 9.63281 9.92749C10.1723 9.63154 10.6928 9.2898 11.1797 8.91284Z" fill="#B12024" stroke="white" stroke-width="0.3"/>
<mask id="path-2-inside-1_932_11707" fill="white">
<path d="M68.8955 38.7727C67.1815 37.8206 65.3658 37.0395 63.4984 36.4514C62.9423 36.2765 62.3504 36.585 62.1756 37.1406C62.0006 37.6962 62.309 38.2886 62.8648 38.4635C64.5967 39.009 66.2811 39.7333 67.8709 40.6167C69.5956 41.5748 70.3435 43.6787 69.6108 45.5105L63.7404 60.1865H62.8622L66.7442 46.1842C66.8999 45.6228 66.5709 45.0416 66.0096 44.886C65.4476 44.7306 64.8669 45.0594 64.7113 45.6206L60.6731 60.1865H59.0754L60.9526 41.9345C61.0122 41.3552 60.5907 40.837 60.0112 40.7775C59.4297 40.7167 58.9136 41.1393 58.854 41.7188L56.9546 60.1866H55.802V39.8851C55.802 39.3026 55.3298 38.8302 54.7472 38.8302C54.1646 38.8302 53.6924 39.3025 53.6924 39.8851V60.1865H52.5398L50.6403 41.7187C50.5806 41.1394 50.0637 40.7173 49.4831 40.7775C48.9037 40.8371 48.4821 41.3552 48.5417 41.9347L50.4191 60.1866H48.8216L44.7832 45.6207C44.6276 45.0595 44.0473 44.7309 43.485 44.8861C42.9236 45.0418 42.5947 45.623 42.7504 46.1844L46.6323 60.1866H45.754C45.0296 58.3757 40.5175 47.0956 39.8836 45.5108C39.1509 43.679 39.8988 41.5751 41.6235 40.6169C46.6907 37.8017 52.3917 36.7105 58.106 37.4257C58.683 37.4982 59.2112 37.0882 59.2838 36.5101C59.356 35.932 58.9461 35.4049 58.3682 35.3325C57.7846 35.2593 57.2013 35.2039 56.6189 35.1657C52.3792 26.8722 43.7909 21.3573 34.0595 21.3573C27.9571 21.3573 22.2139 23.4855 17.6411 27.3972V18.6911C17.6411 18.1044 17.2237 17.6133 16.6704 17.4991V11.706C16.6704 11.1235 16.1982 10.6511 15.6155 10.6511C15.0331 10.6511 14.5607 11.1234 14.5607 11.706V17.4743H6.96318V12.9243C6.96318 8.14141 9.83263 3.90326 14.2736 2.12688C14.3591 2.09285 14.427 2.11943 14.4689 2.14798C14.5109 2.17638 14.561 2.22968 14.561 2.32151V6.78367C14.561 7.36614 15.0332 7.8385 15.6158 7.8385C16.1983 7.8385 16.6707 7.36628 16.6707 6.78367V2.32151C16.6707 1.55102 16.2897 0.832994 15.6517 0.400994C15.0137 -0.031005 14.2055 -0.118052 13.4901 0.16826C8.24385 2.2668 4.85381 7.27375 4.85381 12.9243V17.4993C4.30045 17.6135 3.88307 18.1045 3.88307 18.6911V31.0645H3.1379C2.47823 31.0645 1.94161 31.6011 1.94161 32.2608V36.8889H1.22653C0.550265 36.8889 0 37.439 0 38.1154V70.7767C0 71.4529 0.550124 72.0032 1.22653 72.0032H20.2976C20.9739 72.0032 21.5242 71.4529 21.5242 70.7767V68.6878C25.3315 70.8622 29.6271 72.0032 34.0596 72.0032C37.044 72.0032 39.9473 71.4936 42.7121 70.4867V70.8107C42.7121 71.4683 43.2471 72.0032 43.9046 72.0032H65.59C66.2475 72.0032 66.7824 71.4683 66.7824 70.8107V61.3789C66.7824 60.86 66.4492 60.4174 65.9855 60.2539L71.5696 46.2939C72.6956 43.4787 71.546 40.2452 68.8955 38.7727ZM40.5992 38.7727C37.9487 40.2452 36.7991 43.4787 37.9251 46.294L42.3461 57.3464C39.9839 59.1829 37.0694 60.1865 34.0598 60.1865C28.5789 60.1865 23.5662 56.7915 21.5243 51.7184V38.1154C21.5243 37.4392 20.9742 36.8889 20.2978 36.8889H19.5828V33.8703C23.2564 29.7214 28.5106 27.3496 34.0599 27.3496C40.3294 27.3496 46.2369 30.441 49.8398 35.5132C48.5018 35.7414 47.181 36.064 45.8846 36.4798C42.9111 33.0286 38.6434 31.0644 34.0599 31.0644C33.4774 31.0644 33.0051 31.5366 33.0051 32.1192C33.0051 32.7018 33.4773 33.174 34.0599 33.174C37.7517 33.174 41.207 34.6476 43.7419 37.2614C42.6725 37.6996 41.6234 38.2038 40.5992 38.7727ZM2.10965 38.9984H19.4147V42.7133H2.10965V38.9984ZM34.0598 23.4667C42.353 23.4667 50.0731 27.9833 54.1864 35.1072C53.5144 35.119 52.8446 35.1542 52.178 35.2124C50.3397 32.3147 47.8188 29.8823 44.852 28.1506C41.5896 26.2466 37.8577 25.2401 34.0598 25.2401C28.4432 25.2401 23.0995 27.4305 19.1118 31.3102C18.9104 31.1562 18.6589 31.0645 18.3864 31.0645H17.6412V30.2698C22.0252 25.8794 27.8388 23.4667 34.0598 23.4667ZM5.99245 19.5838H15.5317V31.0645H5.99245V19.5838ZM4.05098 33.174H17.4732V36.8889H4.05098V33.174ZM2.10965 69.8937V44.8228H19.4147V69.8937H2.10965ZM34.0598 69.8937C29.5851 69.8937 25.2632 68.6257 21.5243 66.2216V64.0762C22.7725 64.9775 24.1128 65.7408 25.5285 66.3554C26.0616 66.5869 26.6836 66.3436 26.916 65.808C27.148 65.2736 26.9029 64.6525 26.3686 64.4204C24.6123 63.658 22.9847 62.6414 21.5243 61.3957V55.999C22.5208 57.338 23.7325 58.516 25.1263 59.4896C27.7541 61.3254 30.8432 62.2959 34.0599 62.2959C37.337 62.2959 40.5163 61.2666 43.1569 59.3731L43.5092 60.2539C43.0455 60.4174 42.7123 60.8598 42.7123 61.3789V63.9709C39.2287 65.715 35.1026 66.4377 30.9309 65.7589C30.3553 65.6653 29.814 66.0556 29.7204 66.6306C29.6268 67.2057 30.0171 67.7475 30.5921 67.8411C34.5839 68.4905 38.815 68.0176 42.7124 66.3012V68.2277C39.9642 69.3336 37.0569 69.8937 34.0598 69.8937ZM64.6729 69.8937H44.8216C44.8216 64.4112 44.8216 65.8049 44.8216 62.2959H64.6729V69.8937Z"/>
</mask>
<path d="M68.8955 38.7727C67.1815 37.8206 65.3658 37.0395 63.4984 36.4514C62.9423 36.2765 62.3504 36.585 62.1756 37.1406C62.0006 37.6962 62.309 38.2886 62.8648 38.4635C64.5967 39.009 66.2811 39.7333 67.8709 40.6167C69.5956 41.5748 70.3435 43.6787 69.6108 45.5105L63.7404 60.1865H62.8622L66.7442 46.1842C66.8999 45.6228 66.5709 45.0416 66.0096 44.886C65.4476 44.7306 64.8669 45.0594 64.7113 45.6206L60.6731 60.1865H59.0754L60.9526 41.9345C61.0122 41.3552 60.5907 40.837 60.0112 40.7775C59.4297 40.7167 58.9136 41.1393 58.854 41.7188L56.9546 60.1866H55.802V39.8851C55.802 39.3026 55.3298 38.8302 54.7472 38.8302C54.1646 38.8302 53.6924 39.3025 53.6924 39.8851V60.1865H52.5398L50.6403 41.7187C50.5806 41.1394 50.0637 40.7173 49.4831 40.7775C48.9037 40.8371 48.4821 41.3552 48.5417 41.9347L50.4191 60.1866H48.8216L44.7832 45.6207C44.6276 45.0595 44.0473 44.7309 43.485 44.8861C42.9236 45.0418 42.5947 45.623 42.7504 46.1844L46.6323 60.1866H45.754C45.0296 58.3757 40.5175 47.0956 39.8836 45.5108C39.1509 43.679 39.8988 41.5751 41.6235 40.6169C46.6907 37.8017 52.3917 36.7105 58.106 37.4257C58.683 37.4982 59.2112 37.0882 59.2838 36.5101C59.356 35.932 58.9461 35.4049 58.3682 35.3325C57.7846 35.2593 57.2013 35.2039 56.6189 35.1657C52.3792 26.8722 43.7909 21.3573 34.0595 21.3573C27.9571 21.3573 22.2139 23.4855 17.6411 27.3972V18.6911C17.6411 18.1044 17.2237 17.6133 16.6704 17.4991V11.706C16.6704 11.1235 16.1982 10.6511 15.6155 10.6511C15.0331 10.6511 14.5607 11.1234 14.5607 11.706V17.4743H6.96318V12.9243C6.96318 8.14141 9.83263 3.90326 14.2736 2.12688C14.3591 2.09285 14.427 2.11943 14.4689 2.14798C14.5109 2.17638 14.561 2.22968 14.561 2.32151V6.78367C14.561 7.36614 15.0332 7.8385 15.6158 7.8385C16.1983 7.8385 16.6707 7.36628 16.6707 6.78367V2.32151C16.6707 1.55102 16.2897 0.832994 15.6517 0.400994C15.0137 -0.031005 14.2055 -0.118052 13.4901 0.16826C8.24385 2.2668 4.85381 7.27375 4.85381 12.9243V17.4993C4.30045 17.6135 3.88307 18.1045 3.88307 18.6911V31.0645H3.1379C2.47823 31.0645 1.94161 31.6011 1.94161 32.2608V36.8889H1.22653C0.550265 36.8889 0 37.439 0 38.1154V70.7767C0 71.4529 0.550124 72.0032 1.22653 72.0032H20.2976C20.9739 72.0032 21.5242 71.4529 21.5242 70.7767V68.6878C25.3315 70.8622 29.6271 72.0032 34.0596 72.0032C37.044 72.0032 39.9473 71.4936 42.7121 70.4867V70.8107C42.7121 71.4683 43.2471 72.0032 43.9046 72.0032H65.59C66.2475 72.0032 66.7824 71.4683 66.7824 70.8107V61.3789C66.7824 60.86 66.4492 60.4174 65.9855 60.2539L71.5696 46.2939C72.6956 43.4787 71.546 40.2452 68.8955 38.7727ZM40.5992 38.7727C37.9487 40.2452 36.7991 43.4787 37.9251 46.294L42.3461 57.3464C39.9839 59.1829 37.0694 60.1865 34.0598 60.1865C28.5789 60.1865 23.5662 56.7915 21.5243 51.7184V38.1154C21.5243 37.4392 20.9742 36.8889 20.2978 36.8889H19.5828V33.8703C23.2564 29.7214 28.5106 27.3496 34.0599 27.3496C40.3294 27.3496 46.2369 30.441 49.8398 35.5132C48.5018 35.7414 47.181 36.064 45.8846 36.4798C42.9111 33.0286 38.6434 31.0644 34.0599 31.0644C33.4774 31.0644 33.0051 31.5366 33.0051 32.1192C33.0051 32.7018 33.4773 33.174 34.0599 33.174C37.7517 33.174 41.207 34.6476 43.7419 37.2614C42.6725 37.6996 41.6234 38.2038 40.5992 38.7727ZM2.10965 38.9984H19.4147V42.7133H2.10965V38.9984ZM34.0598 23.4667C42.353 23.4667 50.0731 27.9833 54.1864 35.1072C53.5144 35.119 52.8446 35.1542 52.178 35.2124C50.3397 32.3147 47.8188 29.8823 44.852 28.1506C41.5896 26.2466 37.8577 25.2401 34.0598 25.2401C28.4432 25.2401 23.0995 27.4305 19.1118 31.3102C18.9104 31.1562 18.6589 31.0645 18.3864 31.0645H17.6412V30.2698C22.0252 25.8794 27.8388 23.4667 34.0598 23.4667ZM5.99245 19.5838H15.5317V31.0645H5.99245V19.5838ZM4.05098 33.174H17.4732V36.8889H4.05098V33.174ZM2.10965 69.8937V44.8228H19.4147V69.8937H2.10965ZM34.0598 69.8937C29.5851 69.8937 25.2632 68.6257 21.5243 66.2216V64.0762C22.7725 64.9775 24.1128 65.7408 25.5285 66.3554C26.0616 66.5869 26.6836 66.3436 26.916 65.808C27.148 65.2736 26.9029 64.6525 26.3686 64.4204C24.6123 63.658 22.9847 62.6414 21.5243 61.3957V55.999C22.5208 57.338 23.7325 58.516 25.1263 59.4896C27.7541 61.3254 30.8432 62.2959 34.0599 62.2959C37.337 62.2959 40.5163 61.2666 43.1569 59.3731L43.5092 60.2539C43.0455 60.4174 42.7123 60.8598 42.7123 61.3789V63.9709C39.2287 65.715 35.1026 66.4377 30.9309 65.7589C30.3553 65.6653 29.814 66.0556 29.7204 66.6306C29.6268 67.2057 30.0171 67.7475 30.5921 67.8411C34.5839 68.4905 38.815 68.0176 42.7124 66.3012V68.2277C39.9642 69.3336 37.0569 69.8937 34.0598 69.8937ZM64.6729 69.8937H44.8216C44.8216 64.4112 44.8216 65.8049 44.8216 62.2959H64.6729V69.8937Z" fill="#B12024" stroke="white" stroke-width="0.6" mask="url(#path-2-inside-1_932_11707)"/>
</g>
</svg>
